<svg width="24" height="13" viewBox="0 0 24 13" fill="none" xmlns="http://www.w3.org/2000/svg">
<path d="M0.234375 11.8203C0.203125 11.9141 0.1875 12.0156 0.1875 12.125C0.1875 12.2188 0.203125 12.3203 0.234375 12.4297C0.28125 12.5234 0.34375 12.6016 0.421875 12.6641C0.578125 12.8203 0.765625 12.8984 0.984375 12.8984C1.20312 12.8984 1.39062 12.8203 1.54688 12.6641L12.1406 2.09375L22.5703 12.5234C22.7266 12.6797 22.9141 12.7578 23.1328 12.7578C23.3516 12.7578 23.5391 12.6797 23.6953 12.5234C23.8516 12.3672 23.9297 12.1797 23.9297 11.9609C23.9297 11.7422 23.8516 11.5547 23.6953 11.3984L12.7031 0.382812C12.5469 0.242188 12.3594 0.171875 12.1406 0.171875C11.9219 0.171875 11.7344 0.242188 11.5781 0.382812L0.421875 11.5391C0.34375 11.6172 0.28125 11.7109 0.234375 11.8203Z" fill="#BEB400"/>
<path d="M0.234375 11.8203L-0.68477 11.4264L-0.701155 11.4646L-0.714308 11.5041L0.234375 11.8203ZM0.234375 12.4297L-0.727149 12.7044L-0.701616 12.7938L-0.660052 12.8769L0.234375 12.4297ZM0.421875 12.6641L1.12898 11.957L1.08982 11.9178L1.04657 11.8832L0.421875 12.6641ZM1.54688 12.6641L0.840551 11.9562L0.839768 11.957L1.54688 12.6641ZM12.1406 2.09375L12.8477 1.38664L12.1414 0.680319L11.4343 1.38586L12.1406 2.09375ZM23.6953 11.3984L22.9875 12.1048L22.9882 12.1055L23.6953 11.3984ZM12.7031 0.382812L13.411 -0.323541L13.392 -0.342533L13.3721 -0.360481L12.7031 0.382812ZM11.5781 0.382812L10.9092 -0.360481L10.8896 -0.34289L10.871 -0.324294L11.5781 0.382812ZM-0.714308 11.5041C-0.782972 11.7101 -0.8125 11.9195 -0.8125 12.125H1.1875C1.1875 12.118 1.188 12.1162 1.18759 12.1189C1.18717 12.1216 1.18596 12.1278 1.18306 12.1365L-0.714308 11.5041ZM-0.8125 12.125C-0.8125 12.329 -0.778692 12.524 -0.727149 12.7044L1.1959 12.155C1.19058 12.1364 1.1884 12.1247 1.18759 12.1194C1.18679 12.1142 1.1875 12.1164 1.1875 12.125H-0.8125ZM-0.660052 12.8769C-0.551622 13.0938 -0.399321 13.2877 -0.20282 13.4449L1.04657 11.8832C1.08682 11.9154 1.11412 11.9531 1.1288 11.9825L-0.660052 12.8769ZM-0.285232 13.3712C0.0564143 13.7128 0.497397 13.8984 0.984375 13.8984V11.8984C0.996768 11.8984 1.02706 11.9012 1.0643 11.9168C1.10135 11.9322 1.12291 11.9509 1.12898 11.957L-0.285232 13.3712ZM0.984375 13.8984C1.47135 13.8984 1.91234 13.7128 2.25398 13.3712L0.839768 11.957C0.845835 11.9509 0.867403 11.9322 0.904447 11.9168C0.941692 11.9012 0.971982 11.8984 0.984375 11.8984V13.8984ZM2.2532 13.372L12.8469 2.80164L11.4343 1.38586L0.840552 11.9562L2.2532 13.372ZM11.4335 2.80086L21.8632 13.2305L23.2774 11.8163L12.8477 1.38664L11.4335 2.80086ZM21.8632 13.2305C22.2049 13.5722 22.6458 13.7578 23.1328 13.7578V11.7578C23.1452 11.7578 23.1755 11.7606 23.2127 11.7761C23.2498 11.7916 23.2714 11.8103 23.2774 11.8163L21.8632 13.2305ZM23.1328 13.7578C23.6198 13.7578 24.0608 13.5722 24.4024 13.2305L22.9882 11.8163C22.9943 11.8103 23.0158 11.7916 23.0529 11.7761C23.0901 11.7606 23.1204 11.7578 23.1328 11.7578V13.7578ZM24.4024 13.2305C24.7441 12.8889 24.9297 12.4479 24.9297 11.9609H22.9297C22.9297 11.9485 22.9325 11.9183 22.948 11.881C22.9635 11.844 22.9821 11.8224 22.9882 11.8163L24.4024 13.2305ZM24.9297 11.9609C24.9297 11.474 24.7441 11.033 24.4024 10.6913L22.9882 12.1055C22.9821 12.0995 22.9635 12.0779 22.948 12.0409C22.9325 12.0036 22.9297 11.9733 22.9297 11.9609H24.9297ZM24.4032 10.6921L13.411 -0.323541L11.9953 1.08917L22.9875 12.1048L24.4032 10.6921ZM13.3721 -0.360481C13.0242 -0.673593 12.5954 -0.828125 12.1406 -0.828125V1.17188C12.1412 1.17188 12.1227 1.17161 12.0942 1.16094C12.0651 1.15003 12.0443 1.13523 12.0342 1.12611L13.3721 -0.360481ZM12.1406 -0.828125C11.6858 -0.828125 11.2571 -0.673593 10.9092 -0.360481L12.2471 1.12611C12.237 1.13523 12.2162 1.15003 12.1871 1.16094C12.1586 1.17161 12.1401 1.17188 12.1406 1.17188V-0.828125ZM10.871 -0.324294L-0.285232 10.832L1.12898 12.2462L12.2852 1.08992L10.871 -0.324294ZM-0.285232 10.832C-0.460045 11.0068 -0.591672 11.2092 -0.68477 11.4264L1.15352 12.2142C1.15424 12.2126 1.15292 12.216 1.14846 12.2227C1.1439 12.2295 1.1374 12.2378 1.12898 12.2462L-0.285232 10.832Z" fill="#FFCC00"/>
</svg>
