<svg width="32" height="32" viewBox="0 0 32 32" fill="none" xmlns="http://www.w3.org/2000/svg">
<rect width="32" height="32" rx="16" fill="#F5F7FF"/>
<path d="M15.9999 13.9999C15.3077 13.9999 14.631 13.7946 14.0555 13.4101C13.4799 13.0255 13.0313 12.4789 12.7664 11.8393C12.5015 11.1998 12.4322 10.4961 12.5672 9.81717C12.7023 9.13824 13.0356 8.51457 13.5251 8.02514C14.0146 7.53564 14.6382 7.20228 15.3171 7.06727C15.9961 6.9322 16.6998 7.00152 17.3393 7.2664C17.9789 7.53133 18.5255 7.97994 18.9101 8.55551C19.2947 9.13107 19.4999 9.80771 19.4999 10.5C19.4988 11.4279 19.1297 12.3175 18.4736 12.9736C17.8175 13.6297 16.9279 13.9988 15.9999 13.9999ZM15.9999 8.39999C15.5847 8.39999 15.1786 8.52314 14.8333 8.75391C14.488 8.98463 14.2188 9.31262 14.0598 9.69632C13.9009 10.08 13.8593 10.5023 13.9403 10.9097C14.0214 11.317 14.2213 11.6912 14.5151 11.9849C14.8087 12.2786 15.1829 12.4785 15.5903 12.5596C15.9976 12.6406 16.4199 12.5991 16.8036 12.4401C17.1873 12.2811 17.5153 12.012 17.746 11.6667C17.9768 11.3213 18.0999 10.9153 18.0999 10.5C18.0993 9.94317 17.8779 9.40944 17.4842 9.01571C17.0905 8.62203 16.5567 8.40061 15.9999 8.39999Z" fill="#303F9F"/>
<path d="M15.9999 25.8998C14.547 25.8894 13.0987 25.7351 11.6762 25.439C11.5855 25.4193 11.4997 25.3817 11.4237 25.3285C11.3477 25.2752 11.283 25.2074 11.2334 25.1289C11.1839 25.0504 11.1504 24.9629 11.135 24.8714C11.1195 24.7799 11.1225 24.6862 11.1436 24.5958C11.1647 24.5054 11.2036 24.4202 11.258 24.345C11.3124 24.2698 11.3811 24.2061 11.4604 24.1577C11.5396 24.1093 11.6276 24.0772 11.7194 24.0632C11.8111 24.0491 11.9047 24.0535 11.9948 24.0759C13.313 24.346 14.6543 24.488 15.9999 24.4998C17.6631 24.4991 20.5185 24.2161 21.5999 23.4727V22.3998C21.5999 20.9146 21.0099 19.4903 19.9597 18.4401C18.9095 17.3899 17.4851 16.7999 15.9999 16.7999C14.5147 16.7999 13.0904 17.3899 12.0402 18.4401C10.99 19.4903 10.4 20.9146 10.4 22.3998V23.7998C10.4 23.9854 10.3262 24.1635 10.195 24.2948C10.0637 24.4261 9.88563 24.4998 9.69999 24.4998C9.51435 24.4998 9.33628 24.4261 9.20501 24.2948C9.07375 24.1635 9 23.9854 9 23.7998V22.3998C9 20.5433 9.73751 18.7629 11.0502 17.4502C12.363 16.1374 14.1434 15.3999 15.9999 15.3999C17.8564 15.3999 19.6369 16.1374 20.9496 17.4502C22.2623 18.7629 22.9998 20.5433 22.9998 22.3998V23.7998C22.9998 23.9854 22.926 24.1635 22.7948 24.2947C21.2348 25.8547 16.5311 25.8998 15.9999 25.8998Z" fill="#303F9F"/>
</svg>
